<svg xmlns="http://www.w3.org/2000/svg" width="340" height="200" viewBox="0 0 340 200"><style>* {
          font-family: 'Segoe UI', Ubuntu, "Helvetica Neue", Sans-Serif
        }</style><rect x="2" y="2" width="336" height="196" rx="12" fill="#eff1f5" stroke="#7287fd" stroke-width="1.5" stroke-opacity="0.4"></rect><text x="30" y="40" style="font-size: 22px; fill: #8839ef; font-weight: 600;">Top Languages by Commit</text><g transform="translate(0,40)"><g transform="translate(40,0)"><rect y="18" width="14" height="14" fill="#3178c6" stroke="#00000000" style="stroke-width: 1px;"></rect><rect y="43.2" width="14" height="14" fill="#b07219" stroke="#00000000" style="stroke-width: 1px;"></rect><rect y="68.4" width="14" height="14" fill="#00ADD8" stroke="#00000000" style="stroke-width: 1px;"></rect><rect y="93.60000000000002" width="14" height="14" fill="#3572A5" stroke="#00000000" style="stroke-width: 1px;"></rect><rect y="118.80000000000001" width="14" height="14" fill="#f1e05a" stroke="#00000000" style="stroke-width: 1px;"></rect><text x="16.8" y="30" style="fill: #4c4f69; font-size: 14px;">TypeScript</text><text x="16.8" y="55.2" style="fill: #4c4f69; font-size: 14px;">Java</text><text x="16.8" y="80.4" style="fill: #4c4f69; font-size: 14px;">Go</text><text x="16.8" y="105.60000000000002" style="fill: #4c4f69; font-size: 14px;">Python</text><text x="16.8" y="130.8" style="fill: #4c4f69; font-size: 14px;">JavaScript</text></g><g transform="translate( 230, 80 )"><g class="arc"><path d="M3.67394039744206e-15,-60A60,60,0,1,1,-28.22494991809097,-52.946692079121014L-16.4645541188864,-30.88557037948726A35,35,0,1,0,2.1431318985078682e-15,-35Z" style="fill: #3178c6; stroke-width: 2px;" stroke="#00000000"></path></g><g class="arc"><path d="M-28.22494991809097,-52.946692079121014A60,60,0,0,1,-15.882645598685164,-57.85967135048874L-9.264876599233013,-33.751474954451766A35,35,0,0,0,-16.4645541188864,-30.88557037948726Z" style="fill: #b07219; stroke-width: 2px;" stroke="#00000000"></path></g><g class="arc"><path d="M-15.882645598685164,-57.85967135048874A60,60,0,0,1,-7.26576314864734,-59.558447644878704L-4.238361836710949,-34.74242779284591A35,35,0,0,0,-9.264876599233013,-33.751474954451766Z" style="fill: #00ADD8; stroke-width: 2px;" stroke="#00000000"></path></g><g class="arc"><path d="M-7.26576314864734,-59.558447644878704A60,60,0,0,1,-0.25115923881074226,-59.999474323003525L-0.14650955597293297,-34.99969335508539A35,35,0,0,0,-4.238361836710949,-34.74242779284591Z" style="fill: #3572A5; stroke-width: 2px;" stroke="#00000000"></path></g><g class="arc"><path d="M-0.25115923881074226,-59.999474323003525A60,60,0,0,1,-6.431252637433369e-14,-60L-3.7515640385027985e-14,-35A35,35,0,0,0,-0.14650955597293297,-34.99969335508539Z" style="fill: #f1e05a; stroke-width: 2px;" stroke="#00000000"></path></g></g></g></svg>