<svg xmlns="http://www.w3.org/2000/svg" width="340" height="200" viewBox="0 0 340 200"><style>* {
          font-family: 'Segoe UI', Ubuntu, "Helvetica Neue", Sans-Serif
        }</style><rect x="2" y="2" width="336" height="196" rx="12" fill="#eff1f5" stroke="#7287fd" stroke-width="1.5" stroke-opacity="0.4"></rect><text x="30" y="40" style="font-size: 22px; fill: #8839ef; font-weight: 600;">Top Languages by Commit</text><g transform="translate(0,40)"><g transform="translate(40,0)"><rect y="18" width="14" height="14" fill="#3178c6" stroke="#00000000" style="stroke-width: 1px;"></rect><rect y="43.2" width="14" height="14" fill="#b07219" stroke="#00000000" style="stroke-width: 1px;"></rect><rect y="68.4" width="14" height="14" fill="#00ADD8" stroke="#00000000" style="stroke-width: 1px;"></rect><rect y="93.60000000000002" width="14" height="14" fill="#3572A5" stroke="#00000000" style="stroke-width: 1px;"></rect><rect y="118.80000000000001" width="14" height="14" fill="#DA5B0B" stroke="#00000000" style="stroke-width: 1px;"></rect><text x="16.8" y="30" style="fill: #4c4f69; font-size: 14px;">TypeScript</text><text x="16.8" y="55.2" style="fill: #4c4f69; font-size: 14px;">Java</text><text x="16.8" y="80.4" style="fill: #4c4f69; font-size: 14px;">Go</text><text x="16.8" y="105.60000000000002" style="fill: #4c4f69; font-size: 14px;">Python</text><text x="16.8" y="130.8" style="fill: #4c4f69; font-size: 14px;">Jupyter Notebook</text></g><g transform="translate( 230, 80 )"><g class="arc"><path d="M3.67394039744206e-15,-60A60,60,0,1,1,-43.0684699872686,-41.77447657309118L-25.12327415924002,-24.36844466763652A35,35,0,1,0,2.1431318985078682e-15,-35Z" style="fill: #3178c6; stroke-width: 2px;" stroke="#00000000"></path></g><g class="arc"><path d="M-43.0684699872686,-41.77447657309118A60,60,0,0,1,-24.849209775197945,-54.61242325284795L-14.495372368865468,-31.857246897494633A35,35,0,0,0,-25.12327415924002,-24.36844466763652Z" style="fill: #b07219; stroke-width: 2px;" stroke="#00000000"></path></g><g class="arc"><path d="M-24.849209775197945,-54.61242325284795A60,60,0,0,1,-11.817578609202416,-58.824695798748685L-6.893587522034743,-34.3144058826034A35,35,0,0,0,-14.495372368865468,-31.857246897494633Z" style="fill: #00ADD8; stroke-width: 2px;" stroke="#00000000"></path></g><g class="arc"><path d="M-11.817578609202416,-58.824695798748685A60,60,0,0,1,-0.45750905963927707,-59.998255686814325L-0.26688028478957826,-34.99898248397503A35,35,0,0,0,-6.893587522034743,-34.3144058826034Z" style="fill: #3572A5; stroke-width: 2px;" stroke="#00000000"></path></g><g class="arc"><path d="M-0.45750905963927707,-59.998255686814325A60,60,0,0,1,-6.431252637433369e-14,-60L-3.7515640385027985e-14,-35A35,35,0,0,0,-0.26688028478957826,-34.99898248397503Z" style="fill: #DA5B0B; stroke-width: 2px;" stroke="#00000000"></path></g></g></g></svg>