<svg xmlns="http://www.w3.org/2000/svg" width="340" height="200" viewBox="0 0 340 200"><style>* {
          font-family: 'Segoe UI', Ubuntu, "Helvetica Neue", Sans-Serif
        }</style><rect x="2" y="2" width="336" height="196" rx="12" fill="#eff1f5" stroke="#7287fd" stroke-width="1.5" stroke-opacity="0.4"></rect><text x="30" y="40" style="font-size: 22px; fill: #8839ef; font-weight: 600;">Top Languages by Commit</text><g transform="translate(0,40)"><g transform="translate(40,0)"><rect y="18" width="14" height="14" fill="#3178c6" stroke="#00000000" style="stroke-width: 1px;"></rect><rect y="43.2" width="14" height="14" fill="#b07219" stroke="#00000000" style="stroke-width: 1px;"></rect><rect y="68.4" width="14" height="14" fill="#00ADD8" stroke="#00000000" style="stroke-width: 1px;"></rect><rect y="93.60000000000002" width="14" height="14" fill="#3572A5" stroke="#00000000" style="stroke-width: 1px;"></rect><rect y="118.80000000000001" width="14" height="14" fill="#f1e05a" stroke="#00000000" style="stroke-width: 1px;"></rect><text x="16.8" y="30" style="fill: #4c4f69; font-size: 14px;">TypeScript</text><text x="16.8" y="55.2" style="fill: #4c4f69; font-size: 14px;">Java</text><text x="16.8" y="80.4" style="fill: #4c4f69; font-size: 14px;">Go</text><text x="16.8" y="105.60000000000002" style="fill: #4c4f69; font-size: 14px;">Python</text><text x="16.8" y="130.8" style="fill: #4c4f69; font-size: 14px;">JavaScript</text></g><g transform="translate( 230, 80 )"><g class="arc"><path d="M3.67394039744206e-15,-60A60,60,0,1,1,-40.99124224132773,-43.814587291366664L-23.911557974107843,-25.55850925329722A35,35,0,1,0,2.1431318985078682e-15,-35Z" style="fill: #3178c6; stroke-width: 2px;" stroke="#00000000"></path></g><g class="arc"><path d="M-40.99124224132773,-43.814587291366664A60,60,0,0,1,-23.329450528399278,-55.27871867222476L-13.608846141566245,-32.24591922546445A35,35,0,0,0,-23.911557974107843,-25.55850925329722Z" style="fill: #b07219; stroke-width: 2px;" stroke="#00000000"></path></g><g class="arc"><path d="M-23.329450528399278,-55.27871867222476A60,60,0,0,1,-11.117323445226905,-58.961047475551254L-6.485105343049028,-34.39394436073823A35,35,0,0,0,-13.608846141566245,-32.24591922546445Z" style="fill: #00ADD8; stroke-width: 2px;" stroke="#00000000"></path></g><g class="arc"><path d="M-11.117323445226905,-58.961047475551254A60,60,0,0,1,-0.3993520496915916,-59.998670968117345L-0.2329553623200951,-34.99922473140179A35,35,0,0,0,-6.485105343049028,-34.39394436073823Z" style="fill: #3572A5; stroke-width: 2px;" stroke="#00000000"></path></g><g class="arc"><path d="M-0.3993520496915916,-59.998670968117345A60,60,0,0,1,-6.431252637433369e-14,-60L-3.7515640385027985e-14,-35A35,35,0,0,0,-0.2329553623200951,-34.99922473140179Z" style="fill: #f1e05a; stroke-width: 2px;" stroke="#00000000"></path></g></g></g></svg>