<svg xmlns="http://www.w3.org/2000/svg" width="340" height="200" viewBox="0 0 340 200"><style>* {
          font-family: 'Segoe UI', Ubuntu, "Helvetica Neue", Sans-Serif
        }</style><rect x="2" y="2" width="336" height="196" rx="12" fill="#eff1f5" stroke="#7287fd" stroke-width="1.5" stroke-opacity="0.4"></rect><text x="30" y="40" style="font-size: 22px; fill: #8839ef; font-weight: 600;">Top Languages by Commit</text><g transform="translate(0,40)"><g transform="translate(40,0)"><rect y="18" width="14" height="14" fill="#3178c6" stroke="#00000000" style="stroke-width: 1px;"></rect><rect y="43.2" width="14" height="14" fill="#b07219" stroke="#00000000" style="stroke-width: 1px;"></rect><rect y="68.4" width="14" height="14" fill="#00ADD8" stroke="#00000000" style="stroke-width: 1px;"></rect><rect y="93.60000000000002" width="14" height="14" fill="#3572A5" stroke="#00000000" style="stroke-width: 1px;"></rect><rect y="118.80000000000001" width="14" height="14" fill="#f1e05a" stroke="#00000000" style="stroke-width: 1px;"></rect><text x="16.8" y="30" style="fill: #4c4f69; font-size: 14px;">TypeScript</text><text x="16.8" y="55.2" style="fill: #4c4f69; font-size: 14px;">Java</text><text x="16.8" y="80.4" style="fill: #4c4f69; font-size: 14px;">Go</text><text x="16.8" y="105.60000000000002" style="fill: #4c4f69; font-size: 14px;">Python</text><text x="16.8" y="130.8" style="fill: #4c4f69; font-size: 14px;">JavaScript</text></g><g transform="translate( 230, 80 )"><g class="arc"><path d="M3.67394039744206e-15,-60A60,60,0,1,1,-42.27257345890712,-42.57968451223308L-24.659001184362484,-24.83814929880263A35,35,0,1,0,2.1431318985078682e-15,-35Z" style="fill: #3178c6; stroke-width: 2px;" stroke="#00000000"></path></g><g class="arc"><path d="M-42.27257345890712,-42.57968451223308A60,60,0,0,1,-24.853047796860434,-54.61067675104357L-14.497611214835253,-31.85622810477542A35,35,0,0,0,-24.659001184362484,-24.83814929880263Z" style="fill: #b07219; stroke-width: 2px;" stroke="#00000000"></path></g><g class="arc"><path d="M-24.853047796860434,-54.61067675104357A60,60,0,0,1,-11.652167511708473,-58.85768422456906L-6.797097715163276,-34.33364913099862A35,35,0,0,0,-14.497611214835253,-31.85622810477542Z" style="fill: #00ADD8; stroke-width: 2px;" stroke="#00000000"></path></g><g class="arc"><path d="M-11.652167511708473,-58.85768422456906A60,60,0,0,1,-0.434317772043474,-59.998428046682086L-0.2533520336920265,-34.999083027231215A35,35,0,0,0,-6.797097715163276,-34.33364913099862Z" style="fill: #3572A5; stroke-width: 2px;" stroke="#00000000"></path></g><g class="arc"><path d="M-0.434317772043474,-59.998428046682086A60,60,0,0,1,-6.431252637433369e-14,-60L-3.7515640385027985e-14,-35A35,35,0,0,0,-0.2533520336920265,-34.999083027231215Z" style="fill: #f1e05a; stroke-width: 2px;" stroke="#00000000"></path></g></g></g></svg>